<svg width="1078" height="1084" viewBox="0 0 1078 1084" fill="none" xmlns="http://www.w3.org/2000/svg">
<mask id="mask0" mask-type="alpha" maskUnits="userSpaceOnUse" x="0" y="0" width="1078" height="1084">
<path d="M1077.22 541.897C1077.22 840.805 836.202 1083.11 538.901 1083.11C241.599 1083.11 0.584473 840.805 0.584473 541.897C0.584473 242.989 241.599 0.680908 538.901 0.680908C836.202 0.680908 1077.22 242.989 1077.22 541.897Z" fill="#C4C4C4" stroke="black"/>
</mask>
<g mask="url(#mask0)">
<rect x="240.864" y="368.625" width="740.357" height="10.6508" fill="#070B76"/>
<rect x="310.865" y="343.005" width="740.357" height="10.6508" fill="#070B76"/>
<rect x="710.615" y="396.259" width="455.03" height="12.7736" fill="black"/>
<rect x="-87.3453" y="332.354" width="1303.47" height="10.6508" fill="#6A6DAD"/>
<rect x="-79.1602" y="358.981" width="943.866" height="10.6508" fill="#6A6DAD"/>
<rect x="14.5537" y="378.941" width="943.866" height="10.6508" fill="#6A6DAD"/>
<rect x="390.873" y="300.402" width="771.25" height="10.6508" fill="#6A6DAD"/>
<path d="M21.3164 428.211H694.548V438.862H19.1016L21.3164 428.211Z" fill="#070B76"/>
<rect x="167.207" y="460.163" width="623.198" height="21.3016" fill="#070B76"/>
<rect x="-125.735" y="481.465" width="756.379" height="21.3016" fill="#383C91"/>
<rect x="438.674" y="513.417" width="694.376" height="10.6508" fill="#070B76"/>
<rect x="161.015" y="536.601" width="868.89" height="10.6508" transform="rotate(-0.19348 161.015 536.601)" fill="#6A6DAD"/>
<rect x="-241.959" y="556.021" width="1053.64" height="21.3016" fill="#070B76"/>
<rect x="335.001" y="242.452" width="607.094" height="10.6508" fill="#070B76"/>
<rect x="4.84619" y="257.799" width="1025.07" height="10.6508" fill="#383C91"/>
<rect x="196.947" y="150.93" width="575.142" height="11.0466" fill="#383C91"/>
<rect x="571.936" y="193.894" width="360.772" height="10.6508" fill="#070B76"/>
<rect x="635.841" y="225.846" width="360.772" height="10.6508" fill="#383C91"/>
<rect x="603.889" y="311.052" width="360.772" height="10.6508" fill="#070B76"/>
<rect x="486.938" y="183.243" width="360.772" height="10.6508" fill="#383C91"/>
<rect x="221.815" y="172.592" width="217.185" height="10.6508" fill="#070B76"/>
<rect x="220.799" y="119.867" width="426.031" height="10.6508" fill="#070B76"/>
<rect x="427.665" y="134.245" width="473.291" height="10.4219" fill="#070B76"/>
<rect x="284.365" y="90.428" width="335.627" height="11.7477" fill="#070B76"/>
<rect x="442.479" y="54.8796" width="421.018" height="9.62947" fill="#070B76"/>
<rect x="537.719" y="6.39722" width="153.959" height="7.95293" fill="#070B76"/>
<rect x="332.81" y="-1.04565" width="335.627" height="7.44292" fill="#383C91"/>
<rect width="335.627" height="10.6508" transform="matrix(1 0 0 -1 355.398 54.7903)" fill="#383C91"/>
<rect x="386.216" y="105.43" width="473.291" height="9.96889" fill="#070B76"/>
<rect x="-28.7933" y="779.687" width="707.238" height="10.6508" fill="#070B76"/>
<rect x="177.858" y="673.179" width="852.062" height="10.6508" fill="#383C91"/>
<rect x="241.762" y="641.227" width="830.761" height="10.6508" fill="#070B76"/>
<rect x="199.159" y="683.83" width="904.998" height="10.6508" fill="#070B76"/>
<rect x="50.0483" y="694.48" width="809.459" height="10.6508" fill="#383C91"/>
<rect x="177.858" y="822.29" width="752.641" height="10.6508" fill="#383C91"/>
<rect x="199.159" y="832.941" width="818.29" height="10.6508" fill="#070B76"/>
<rect x="97.1163" y="843.592" width="357.662" height="10.6508" fill="#383C91"/>
<rect x="18.0959" y="598.624" width="1165.73" height="10.6508" fill="black"/>
<rect x="-212.61" y="609.274" width="1157.32" height="12.4531" fill="#383C91"/>
<rect x="428.101" y="406.971" width="623.198" height="9.28204" transform="rotate(0.479118 428.101 406.971)" fill="#383C91"/>
<rect x="675.033" y="934.011" width="383.428" height="10.6508" fill="#070B76"/>
<rect x="561.286" y="927.127" width="383.428" height="6.73121" fill="#6A6DAD"/>
<rect x="412.175" y="960.552" width="383.428" height="10.6508" fill="#070B76"/>
<rect x="220.461" y="971.401" width="383.428" height="10.6508" fill="#070B76"/>
<rect x="646.492" y="982.052" width="286.512" height="10.6508" fill="#070B76"/>
<rect x="625.19" y="1003.35" width="138.46" height="10.6508" fill="#070B76"/>
<rect x="269.408" y="1019.69" width="245.254" height="8.26965" fill="#383C91"/>
<rect x="269.408" y="1027.96" width="339.396" height="7.3426" fill="#070B76"/>
<rect x="461.122" y="1056.61" width="339.396" height="10.6508" fill="#070B76"/>
<rect x="392.302" y="1077.91" width="339.396" height="10.6508" fill="#070B76"/>
<rect x="518.682" y="1045.96" width="339.396" height="10.6508" fill="#6A6DAD"/>
<rect x="298.427" y="952.174" width="383.428" height="8.22524" fill="#6A6DAD"/>
<rect x="518.682" y="864.893" width="383.428" height="10.6508" fill="#6A6DAD"/>
<rect x="635.841" y="749.038" width="439.929" height="10.6508" fill="#6A6DAD"/>
<rect x="481.396" y="737.084" width="383.428" height="10.6508" fill="#6A6DAD"/>
<rect x="731.405" y="524.068" width="383.428" height="10.6508" fill="#6A6DAD"/>
<rect x="352.691" y="769.036" width="383.428" height="10.6508" fill="#6A6DAD"/>
<rect x="198.246" y="757.082" width="383.428" height="10.6508" fill="#6A6DAD"/>
<rect x="492.065" y="811.639" width="383.428" height="10.6508" fill="#6A6DAD"/>
<rect x="337.619" y="799.685" width="383.428" height="10.6508" fill="#6A6DAD"/>
<rect x="348.27" y="875.544" width="383.428" height="10.6508" fill="#6A6DAD"/>
<rect x="348.27" y="896.845" width="383.428" height="10.6508" fill="#6A6DAD"/>
<rect x="177.858" y="907.496" width="383.428" height="10.6508" fill="#6A6DAD"/>
<rect x="428.023" y="34.1321" width="293.024" height="10.6508" fill="#6A6DAD"/>
<rect x="-6.7854" y="289.751" width="344.405" height="10.6508" fill="#070B76"/>
<path d="M859.508 460.163H1086.1L1087.66 470.814H859.508V460.163Z" fill="#070B76"/>
<path d="M604.215 438.862H830.806L832.368 449.513H604.215V438.862Z" fill="#6A6DAD"/>
<rect x="24.5945" y="726.433" width="270.422" height="10.6508" fill="#070B76"/>
<rect x="188.508" y="215.195" width="213.016" height="10.6508" fill="#070B76"/>
</g>
</svg>
