<svg width="1170" height="235" viewBox="0 0 1170 235" fill="none" xmlns="http://www.w3.org/2000/svg">
<mask id="mask0" mask-type="alpha" maskUnits="userSpaceOnUse" x="0" y="0" width="234" height="235">
<path d="M232.882 117.641C232.882 181.909 181.062 234.004 117.145 234.004C53.2271 234.004 1.40723 181.909 1.40723 117.641C1.40723 53.3734 53.2271 1.27844 117.145 1.27844C181.062 1.27844 232.882 53.3734 232.882 117.641Z" fill="#C4C4C4" stroke="black"/>
</mask>
<g mask="url(#mask0)">
<rect x="52.8506" y="80.2618" width="159.715" height="2.29766" fill="#070B76"/>
<rect x="67.9517" y="74.7348" width="159.715" height="2.29766" fill="#070B76"/>
<rect x="154.188" y="86.223" width="98.1623" height="2.75561" fill="black"/>
<rect x="121.791" y="72.8268" width="112.03" height="2.29766" fill="#6A6DAD"/>
<rect x="33.8843" y="77.0123" width="203.618" height="2.29766" fill="#6A6DAD"/>
<rect x="47.8662" y="82.2924" width="203.618" height="2.29766" fill="#6A6DAD"/>
<rect x="85.2114" y="65.5442" width="166.38" height="2.29766" fill="#6A6DAD"/>
<path d="M72.5724 93.1162H242.253V95.4139H72.0142L72.5724 93.1162Z" fill="#070B76"/>
<rect x="36.3398" y="103.817" width="134.441" height="3.47764" fill="#070B76"/>
<rect x="71.5654" y="105.024" width="163.171" height="2.64339" fill="#383C91"/>
<rect x="95.5234" y="111.497" width="149.796" height="2.29766" fill="#070B76"/>
<rect x="35.625" y="116.499" width="187.443" height="2.29766" transform="rotate(-0.19348 35.625 116.499)" fill="#6A6DAD"/>
<path d="M48.3613 120.688H240.468V125.283H48.3613V120.688Z" fill="#070B76"/>
<rect x="73.1582" y="53.0428" width="130.967" height="2.29766" fill="#070B76"/>
<rect x="49.6553" y="56.3536" width="173.416" height="2.29766" fill="#383C91"/>
<rect x="43.376" y="33.299" width="124.074" height="2.38306" fill="#383C91"/>
<rect x="124.272" y="42.5675" width="77.8284" height="2.29766" fill="#070B76"/>
<rect x="138.058" y="49.4604" width="77.8284" height="2.29766" fill="#383C91"/>
<rect x="131.165" y="67.8419" width="77.8284" height="2.29766" fill="#070B76"/>
<rect x="105.936" y="40.2698" width="77.8284" height="2.29766" fill="#383C91"/>
<rect x="149.717" y="61.1018" width="71.444" height="2.29766" fill="#070B76"/>
<rect x="149.717" y="61.1018" width="71.444" height="2.29766" fill="#070B76"/>
<rect x="158.373" y="81.832" width="56.1309" height="2.29766" fill="#383C91"/>
<rect x="60.4116" y="37.9722" width="46.8527" height="2.29766" fill="#070B76"/>
<rect x="94.8276" y="26.0712" width="91.9065" height="2.29766" fill="#070B76"/>
<rect x="93.1484" y="29.6997" width="102.102" height="2.24828" fill="#070B76"/>
<rect x="71.3921" y="18.8833" width="72.4039" height="2.53429" fill="#070B76"/>
<rect x="96.3442" y="12.5784" width="90.8251" height="2.07734" fill="#070B76"/>
<rect x="116.89" y="2.11938" width="33.2132" height="1.71566" fill="#070B76"/>
<rect x="72.6855" y="0.513672" width="72.4039" height="1.60564" fill="#383C91"/>
<rect width="72.4039" height="2.29766" transform="matrix(1 0 0 -1 77.5586 12.5592)" fill="#383C91"/>
<rect x="73.686" y="23.4834" width="102.102" height="2.15056" fill="#070B76"/>
<rect x="112.632" y="168.939" width="152.57" height="2.29766" fill="#070B76"/>
<rect x="137.087" y="145.962" width="183.813" height="2.29766" fill="#383C91"/>
<rect x="53.0444" y="139.069" width="179.218" height="2.29766" fill="#070B76"/>
<rect x="43.8535" y="148.26" width="195.233" height="2.29766" fill="#070B76"/>
<rect x="100.851" y="150.558" width="174.622" height="2.29766" fill="#383C91"/>
<rect x="39.2583" y="178.13" width="162.365" height="2.29766" fill="#383C91"/>
<rect x="43.8535" y="180.427" width="176.527" height="2.29766" fill="#070B76"/>
<rect x="21.8403" y="182.725" width="77.1573" height="2.29766" fill="#383C91"/>
<rect x="38.9277" y="129.879" width="251.479" height="2.29766" fill="black"/>
<rect x="26.833" y="132.177" width="249.666" height="2.68648" fill="#383C91"/>
<rect x="97.0264" y="89.0072" width="134.441" height="2.00239" transform="rotate(0.075801 97.0264 89.0072)" fill="#383C91"/>
<rect x="146.512" y="202.231" width="82.7159" height="2.29766" fill="#070B76"/>
<rect x="121.974" y="200.746" width="82.7159" height="1.4521" fill="#6A6DAD"/>
<rect x="159.405" y="207.956" width="82.7159" height="2.29766" fill="#070B76"/>
<rect x="141.427" y="197.263" width="82.7159" height="2.29766" fill="#070B76"/>
<rect x="100.895" y="212.595" width="101.269" height="2.29766" fill="#070B76"/>
<rect x="161.475" y="217.19" width="29.8696" height="2.29766" fill="#070B76"/>
<rect x="128.606" y="220.715" width="52.9079" height="1.78399" fill="#383C91"/>
<rect x="59.0083" y="222.499" width="73.2169" height="1.584" fill="#070B76"/>
<rect x="105.677" y="228.678" width="73.2169" height="2.29766" fill="#070B76"/>
<rect x="85.5195" y="233.274" width="73.2169" height="2.29766" fill="#070B76"/>
<rect x="112.783" y="226.38" width="73.2169" height="2.29766" fill="#6A6DAD"/>
<rect x="67.4395" y="206.149" width="139.522" height="1.77441" fill="#6A6DAD"/>
<rect x="136.803" y="187.32" width="99.5047" height="2.29766" fill="#6A6DAD"/>
<rect x="138.058" y="162.327" width="94.9047" height="2.29766" fill="#6A6DAD"/>
<rect x="103.303" y="103.748" width="102.153" height="2.29766" fill="#6A6DAD"/>
<rect x="158.673" y="113.795" width="82.7159" height="2.29766" fill="#6A6DAD"/>
<rect x="35.0117" y="166.641" width="124.679" height="2.29766" fill="#6A6DAD"/>
<rect x="184.53" y="164.062" width="82.7159" height="2.29766" fill="#6A6DAD"/>
<rect x="107.042" y="175.832" width="82.7159" height="2.29766" fill="#6A6DAD"/>
<rect x="181.614" y="173.253" width="82.7159" height="2.29766" fill="#6A6DAD"/>
<rect x="92.5791" y="189.618" width="99.5047" height="2.29766" fill="#6A6DAD"/>
<rect x="51.4238" y="194.213" width="82.7159" height="2.29766" fill="#6A6DAD"/>
<rect x="14.6611" y="196.511" width="82.7159" height="2.29766" fill="#6A6DAD"/>
<rect x="93.2256" y="8.10254" width="63.2132" height="2.29766" fill="#6A6DAD"/>
<rect x="53.8071" y="63.2466" width="74.2975" height="2.29766" fill="#070B76"/>
<path d="M186.309 100.009H235.19L235.527 102.307H186.309V100.009Z" fill="#070B76"/>
<path d="M190.908 95.4139H239.79L240.127 97.7115H190.908V95.4139Z" fill="#6A6DAD"/>
<rect x="178.093" y="155.299" width="58.3373" height="2.29766" fill="#070B76"/>
<rect x="41.5557" y="47.1628" width="45.9533" height="2.29766" fill="#070B76"/>
</g>
<path d="M273.029 134.452H276.269C278.717 134.452 280.901 134.068 282.821 133.3C284.741 132.532 286.349 131.476 287.645 130.132C288.989 128.788 289.997 127.204 290.669 125.38C291.389 123.508 291.749 121.468 291.749 119.26C291.749 117.1 291.389 115.084 290.669 113.212C289.949 111.34 288.917 109.732 287.573 108.388C286.277 107.044 284.669 105.988 282.749 105.22C280.829 104.452 278.669 104.068 276.269 104.068H273.029V134.452ZM258.917 92.1156H279.797C283.493 92.1156 286.949 92.8596 290.165 94.3476C293.429 95.8356 296.261 97.8276 298.661 100.324C301.109 102.772 303.029 105.652 304.421 108.964C305.813 112.228 306.509 115.66 306.509 119.26C306.509 122.812 305.813 126.244 304.421 129.556C303.077 132.82 301.181 135.7 298.733 138.196C296.333 140.692 293.501 142.684 290.237 144.172C287.021 145.66 283.541 146.404 279.797 146.404H258.917V92.1156ZM341.294 122.572C340.862 120.748 339.974 119.284 338.63 118.18C337.286 117.076 335.654 116.524 333.734 116.524C331.718 116.524 330.062 117.052 328.766 118.108C327.518 119.164 326.726 120.652 326.39 122.572H341.294ZM326.03 130.132C326.03 135.748 328.67 138.556 333.95 138.556C336.782 138.556 338.918 137.404 340.358 135.1H352.958C350.414 143.548 344.054 147.772 333.878 147.772C330.758 147.772 327.902 147.316 325.31 146.404C322.718 145.444 320.486 144.1 318.614 142.372C316.79 140.644 315.374 138.58 314.366 136.18C313.358 133.78 312.854 131.092 312.854 128.116C312.854 125.044 313.334 122.284 314.294 119.836C315.254 117.34 316.622 115.228 318.398 113.5C320.174 111.772 322.31 110.452 324.806 109.54C327.35 108.58 330.206 108.1 333.374 108.1C336.494 108.1 339.302 108.58 341.798 109.54C344.294 110.452 346.406 111.796 348.134 113.572C349.862 115.348 351.182 117.532 352.094 120.124C353.006 122.668 353.462 125.548 353.462 128.764V130.132H326.03ZM369.377 109.468L378.161 128.404L387.089 109.468H401.633L382.409 146.404H373.697L354.689 109.468H369.377ZM431.364 122.572C430.932 120.748 430.044 119.284 428.7 118.18C427.356 117.076 425.724 116.524 423.804 116.524C421.788 116.524 420.132 117.052 418.836 118.108C417.588 119.164 416.796 120.652 416.46 122.572H431.364ZM416.1 130.132C416.1 135.748 418.74 138.556 424.02 138.556C426.852 138.556 428.988 137.404 430.428 135.1H443.028C440.484 143.548 434.124 147.772 423.948 147.772C420.828 147.772 417.972 147.316 415.38 146.404C412.788 145.444 410.556 144.1 408.684 142.372C406.86 140.644 405.444 138.58 404.436 136.18C403.428 133.78 402.924 131.092 402.924 128.116C402.924 125.044 403.404 122.284 404.364 119.836C405.324 117.34 406.692 115.228 408.468 113.5C410.244 111.772 412.38 110.452 414.876 109.54C417.42 108.58 420.276 108.1 423.444 108.1C426.564 108.1 429.372 108.58 431.868 109.54C434.364 110.452 436.476 111.796 438.204 113.572C439.932 115.348 441.252 117.532 442.164 120.124C443.076 122.668 443.532 125.548 443.532 128.764V130.132H416.1ZM464.014 86.6436V146.404H450.982V86.6436H464.014ZM485.231 127.756C485.231 129.004 485.447 130.156 485.879 131.212C486.359 132.22 486.959 133.108 487.679 133.876C488.447 134.644 489.335 135.244 490.343 135.676C491.399 136.108 492.503 136.324 493.655 136.324C494.807 136.324 495.887 136.108 496.895 135.676C497.951 135.244 498.839 134.644 499.559 133.876C500.327 133.108 500.927 132.22 501.359 131.212C501.839 130.156 502.079 129.028 502.079 127.828C502.079 126.676 501.839 125.596 501.359 124.588C500.927 123.532 500.327 122.62 499.559 121.852C498.839 121.084 497.951 120.484 496.895 120.052C495.887 119.62 494.807 119.404 493.655 119.404C492.503 119.404 491.399 119.62 490.343 120.052C489.335 120.484 488.447 121.084 487.679 121.852C486.959 122.62 486.359 123.508 485.879 124.516C485.447 125.524 485.231 126.604 485.231 127.756ZM471.479 127.612C471.479 124.876 472.031 122.332 473.135 119.98C474.239 117.58 475.775 115.516 477.743 113.788C479.711 112.012 482.039 110.62 484.727 109.612C487.463 108.604 490.439 108.1 493.655 108.1C496.823 108.1 499.751 108.604 502.439 109.612C505.175 110.572 507.527 111.94 509.495 113.716C511.511 115.444 513.071 117.532 514.175 119.98C515.279 122.38 515.831 125.044 515.831 127.972C515.831 130.9 515.255 133.588 514.103 136.036C512.999 138.436 511.463 140.524 509.495 142.3C507.527 144.028 505.151 145.372 502.367 146.332C499.631 147.292 496.655 147.772 493.439 147.772C490.271 147.772 487.343 147.292 484.655 146.332C481.967 145.372 479.639 144.004 477.671 142.228C475.751 140.452 474.239 138.34 473.135 135.892C472.031 133.396 471.479 130.636 471.479 127.612ZM552.781 128.044C552.781 126.892 552.565 125.812 552.133 124.804C551.749 123.748 551.173 122.836 550.405 122.068C549.637 121.3 548.725 120.7 547.669 120.268C546.661 119.788 545.557 119.548 544.357 119.548C543.205 119.548 542.125 119.764 541.117 120.196C540.109 120.628 539.221 121.228 538.453 121.996C537.733 122.764 537.133 123.676 536.653 124.732C536.221 125.74 536.005 126.82 536.005 127.972C536.005 129.124 536.221 130.204 536.653 131.212C537.085 132.22 537.685 133.108 538.453 133.876C539.221 134.596 540.109 135.196 541.117 135.676C542.173 136.108 543.277 136.324 544.429 136.324C545.581 136.324 546.661 136.108 547.669 135.676C548.677 135.244 549.541 134.644 550.261 133.876C551.029 133.108 551.629 132.22 552.061 131.212C552.541 130.204 552.781 129.148 552.781 128.044ZM536.365 164.836H523.333V109.468H536.365V113.572C539.149 110.068 542.941 108.316 547.741 108.316C550.381 108.316 552.829 108.844 555.085 109.9C557.389 110.908 559.381 112.3 561.061 114.076C562.741 115.852 564.037 117.94 564.949 120.34C565.909 122.74 566.389 125.308 566.389 128.044C566.389 130.78 565.909 133.324 564.949 135.676C564.037 138.028 562.741 140.092 561.061 141.868C559.429 143.644 557.485 145.036 555.229 146.044C552.973 147.052 550.525 147.556 547.885 147.556C543.277 147.556 539.437 145.972 536.365 142.804V164.836ZM573.818 109.468H586.85V114.004C590.402 110.596 594.386 108.892 598.802 108.892C604.274 108.892 608.45 111.196 611.33 115.804C614.258 111.148 618.434 108.82 623.858 108.82C625.586 108.82 627.218 109.084 628.754 109.612C630.29 110.092 631.61 110.884 632.714 111.988C633.818 113.044 634.682 114.436 635.306 116.164C635.978 117.892 636.314 119.98 636.314 122.428V146.404H623.282V128.188C623.282 126.316 623.138 124.78 622.85 123.58C622.61 122.38 622.226 121.444 621.698 120.772C621.218 120.1 620.642 119.644 619.97 119.404C619.298 119.164 618.578 119.044 617.81 119.044C613.634 119.044 611.546 122.092 611.546 128.188V146.404H598.514V128.188C598.514 126.316 598.394 124.78 598.154 123.58C597.914 122.332 597.554 121.348 597.074 120.628C596.642 119.908 596.066 119.428 595.346 119.188C594.626 118.9 593.786 118.756 592.826 118.756C592.01 118.756 591.242 118.876 590.522 119.116C589.802 119.356 589.154 119.836 588.578 120.556C588.05 121.228 587.618 122.188 587.282 123.436C586.994 124.636 586.85 126.22 586.85 128.188V146.404H573.818V109.468ZM672.255 122.572C671.823 120.748 670.935 119.284 669.591 118.18C668.247 117.076 666.615 116.524 664.695 116.524C662.679 116.524 661.023 117.052 659.727 118.108C658.479 119.164 657.687 120.652 657.351 122.572H672.255ZM656.991 130.132C656.991 135.748 659.631 138.556 664.911 138.556C667.743 138.556 669.879 137.404 671.319 135.1H683.919C681.375 143.548 675.015 147.772 664.839 147.772C661.719 147.772 658.863 147.316 656.271 146.404C653.679 145.444 651.447 144.1 649.575 142.372C647.751 140.644 646.335 138.58 645.327 136.18C644.319 133.78 643.815 131.092 643.815 128.116C643.815 125.044 644.295 122.284 645.255 119.836C646.215 117.34 647.583 115.228 649.359 113.5C651.135 111.772 653.271 110.452 655.767 109.54C658.311 108.58 661.167 108.1 664.335 108.1C667.455 108.1 670.263 108.58 672.759 109.54C675.255 110.452 677.367 111.796 679.095 113.572C680.823 115.348 682.143 117.532 683.055 120.124C683.967 122.668 684.423 125.548 684.423 128.764V130.132H656.991ZM691.872 109.468H704.904V114.148C706.68 111.988 708.48 110.548 710.304 109.828C712.128 109.06 714.264 108.676 716.712 108.676C719.304 108.676 721.512 109.108 723.336 109.972C725.208 110.788 726.792 111.964 728.088 113.5C729.144 114.748 729.864 116.14 730.248 117.676C730.632 119.212 730.824 120.964 730.824 122.932V146.404H717.792V127.756C717.792 125.932 717.648 124.468 717.36 123.364C717.12 122.212 716.664 121.3 715.992 120.628C715.416 120.052 714.768 119.644 714.048 119.404C713.328 119.164 712.56 119.044 711.744 119.044C709.536 119.044 707.832 119.716 706.632 121.06C705.48 122.356 704.904 124.228 704.904 126.676V146.404H691.872V109.468ZM754.229 120.34V146.404H741.197V120.34H736.877V109.468H741.197V98.3796H754.229V109.468H761.645V120.34H754.229ZM806.349 134.452H809.589C812.037 134.452 814.221 134.068 816.141 133.3C818.061 132.532 819.669 131.476 820.965 130.132C822.309 128.788 823.317 127.204 823.989 125.38C824.709 123.508 825.069 121.468 825.069 119.26C825.069 117.1 824.709 115.084 823.989 113.212C823.269 111.34 822.237 109.732 820.893 108.388C819.597 107.044 817.989 105.988 816.069 105.22C814.149 104.452 811.989 104.068 809.589 104.068H806.349V134.452ZM792.237 92.1156H813.117C816.813 92.1156 820.269 92.8596 823.485 94.3476C826.749 95.8356 829.581 97.8276 831.981 100.324C834.429 102.772 836.349 105.652 837.741 108.964C839.133 112.228 839.829 115.66 839.829 119.26C839.829 122.812 839.133 126.244 837.741 129.556C836.397 132.82 834.501 135.7 832.053 138.196C829.653 140.692 826.821 142.684 823.557 144.172C820.341 145.66 816.861 146.404 813.117 146.404H792.237V92.1156ZM861.006 141.364L843.15 109.468H858.27L868.134 128.404L877.71 109.468H892.686L863.022 164.836H848.406L861.006 141.364ZM897.185 109.468H910.217V114.148C911.993 111.988 913.793 110.548 915.617 109.828C917.441 109.06 919.577 108.676 922.025 108.676C924.617 108.676 926.825 109.108 928.649 109.972C930.521 110.788 932.105 111.964 933.401 113.5C934.457 114.748 935.177 116.14 935.561 117.676C935.945 119.212 936.137 120.964 936.137 122.932V146.404H923.105V127.756C923.105 125.932 922.961 124.468 922.673 123.364C922.433 122.212 921.977 121.3 921.305 120.628C920.729 120.052 920.081 119.644 919.361 119.404C918.641 119.164 917.873 119.044 917.057 119.044C914.849 119.044 913.145 119.716 911.945 121.06C910.793 122.356 910.217 124.228 910.217 126.676V146.404H897.185V109.468ZM957.093 127.828C957.093 129.028 957.309 130.156 957.741 131.212C958.173 132.22 958.749 133.108 959.469 133.876C960.237 134.644 961.125 135.244 962.133 135.676C963.189 136.108 964.317 136.324 965.517 136.324C966.669 136.324 967.749 136.108 968.757 135.676C969.813 135.244 970.701 134.644 971.421 133.876C972.189 133.108 972.789 132.22 973.221 131.212C973.701 130.204 973.941 129.124 973.941 127.972C973.941 126.82 973.701 125.74 973.221 124.732C972.789 123.676 972.189 122.764 971.421 121.996C970.701 121.228 969.813 120.628 968.757 120.196C967.749 119.764 966.669 119.548 965.517 119.548C964.317 119.548 963.189 119.764 962.133 120.196C961.125 120.628 960.237 121.228 959.469 121.996C958.749 122.764 958.173 123.652 957.741 124.66C957.309 125.62 957.093 126.676 957.093 127.828ZM973.509 109.468H986.613V146.404H973.509V142.3C970.725 145.804 966.957 147.556 962.205 147.556C959.517 147.556 957.045 147.076 954.789 146.116C952.533 145.108 950.565 143.716 948.885 141.94C947.205 140.164 945.885 138.076 944.925 135.676C944.013 133.276 943.557 130.66 943.557 127.828C943.557 125.188 944.013 122.692 944.925 120.34C945.837 117.94 947.109 115.852 948.741 114.076C950.373 112.3 952.317 110.908 954.573 109.9C956.829 108.844 959.325 108.316 962.061 108.316C966.669 108.316 970.485 109.924 973.509 113.14V109.468ZM995.482 109.468H1008.51V114.004C1012.07 110.596 1016.05 108.892 1020.47 108.892C1025.94 108.892 1030.11 111.196 1032.99 115.804C1035.92 111.148 1040.1 108.82 1045.52 108.82C1047.25 108.82 1048.88 109.084 1050.42 109.612C1051.95 110.092 1053.27 110.884 1054.38 111.988C1055.48 113.044 1056.35 114.436 1056.97 116.164C1057.64 117.892 1057.98 119.98 1057.98 122.428V146.404H1044.95V128.188C1044.95 126.316 1044.8 124.78 1044.51 123.58C1044.27 122.38 1043.89 121.444 1043.36 120.772C1042.88 120.1 1042.31 119.644 1041.63 119.404C1040.96 119.164 1040.24 119.044 1039.47 119.044C1035.3 119.044 1033.21 122.092 1033.21 128.188V146.404H1020.18V128.188C1020.18 126.316 1020.06 124.78 1019.82 123.58C1019.58 122.332 1019.22 121.348 1018.74 120.628C1018.31 119.908 1017.73 119.428 1017.01 119.188C1016.29 118.9 1015.45 118.756 1014.49 118.756C1013.67 118.756 1012.91 118.876 1012.19 119.116C1011.47 119.356 1010.82 119.836 1010.24 120.556C1009.71 121.228 1009.28 122.188 1008.95 123.436C1008.66 124.636 1008.51 126.22 1008.51 128.188V146.404H995.482V109.468ZM1079.95 109.468V146.404H1066.92V109.468H1079.95ZM1066.06 95.2836C1066.06 94.2756 1066.25 93.3396 1066.63 92.4756C1067.02 91.5636 1067.54 90.7716 1068.22 90.0996C1068.89 89.4276 1069.66 88.8996 1070.52 88.5156C1071.43 88.1316 1072.39 87.9396 1073.4 87.9396C1074.41 87.9396 1075.34 88.1316 1076.21 88.5156C1077.12 88.8996 1077.91 89.4276 1078.58 90.0996C1079.26 90.7716 1079.78 91.5636 1080.17 92.4756C1080.55 93.3396 1080.74 94.2756 1080.74 95.2836C1080.74 96.2916 1080.55 97.2516 1080.17 98.1636C1079.78 99.0276 1079.26 99.7956 1078.58 100.468C1077.91 101.14 1077.12 101.668 1076.21 102.052C1075.34 102.436 1074.41 102.628 1073.4 102.628C1072.39 102.628 1071.43 102.436 1070.52 102.052C1069.66 101.668 1068.89 101.14 1068.22 100.468C1067.54 99.7956 1067.02 99.0276 1066.63 98.1636C1066.25 97.2516 1066.06 96.2916 1066.06 95.2836ZM1116.72 121.42C1114.46 119.884 1112.18 119.116 1109.88 119.116C1108.63 119.116 1107.46 119.332 1106.35 119.764C1105.3 120.196 1104.36 120.82 1103.54 121.636C1102.73 122.404 1102.08 123.34 1101.6 124.444C1101.17 125.5 1100.95 126.7 1100.95 128.044C1100.95 129.34 1101.17 130.54 1101.6 131.644C1102.08 132.7 1102.7 133.636 1103.47 134.452C1104.29 135.22 1105.25 135.82 1106.35 136.252C1107.46 136.684 1108.63 136.9 1109.88 136.9C1112.33 136.9 1114.61 136.06 1116.72 134.38V145.468C1113.5 146.86 1110.46 147.556 1107.58 147.556C1104.89 147.556 1102.32 147.1 1099.87 146.188C1097.47 145.276 1095.34 143.98 1093.46 142.3C1091.64 140.572 1090.18 138.532 1089.07 136.18C1087.97 133.78 1087.42 131.116 1087.42 128.188C1087.42 125.26 1087.94 122.596 1089 120.196C1090.06 117.748 1091.5 115.66 1093.32 113.932C1095.14 112.156 1097.3 110.788 1099.8 109.828C1102.34 108.82 1105.06 108.316 1107.94 108.316C1111.1 108.316 1114.03 108.988 1116.72 110.332V121.42ZM1148.63 118.972C1146.23 117.724 1143.88 117.1 1141.58 117.1C1140.38 117.1 1139.39 117.34 1138.63 117.82C1137.91 118.3 1137.55 118.948 1137.55 119.764C1137.55 120.196 1137.59 120.556 1137.69 120.844C1137.83 121.084 1138.1 121.324 1138.48 121.564C1138.91 121.804 1139.51 122.02 1140.28 122.212C1141.1 122.404 1142.15 122.644 1143.45 122.932C1147.05 123.652 1149.74 124.948 1151.51 126.82C1153.29 128.644 1154.18 130.996 1154.18 133.876C1154.18 136.036 1153.75 137.98 1152.88 139.708C1152.02 141.436 1150.82 142.9 1149.28 144.1C1147.75 145.252 1145.9 146.14 1143.74 146.764C1141.58 147.436 1139.2 147.772 1136.61 147.772C1131.62 147.772 1126.7 146.356 1121.85 143.524L1126.6 134.308C1130.25 136.804 1133.71 138.052 1136.97 138.052C1138.17 138.052 1139.15 137.788 1139.92 137.26C1140.69 136.732 1141.07 136.06 1141.07 135.244C1141.07 134.764 1141 134.38 1140.86 134.092C1140.76 133.756 1140.52 133.468 1140.14 133.228C1139.75 132.94 1139.18 132.7 1138.41 132.508C1137.69 132.268 1136.73 132.028 1135.53 131.788C1131.5 130.972 1128.67 129.772 1127.03 128.188C1125.45 126.556 1124.66 124.324 1124.66 121.492C1124.66 119.428 1125.04 117.58 1125.81 115.948C1126.58 114.268 1127.68 112.852 1129.12 111.7C1130.56 110.548 1132.29 109.66 1134.31 109.036C1136.37 108.412 1138.65 108.1 1141.15 108.1C1145.23 108.1 1149.19 108.892 1153.03 110.476L1148.63 118.972Z" fill="#070B76"/>
</svg>
